<svg width="130" height="130" viewBox="0 0 130 130" fill="none" xmlns="http://www.w3.org/2000/svg">
<path d="M0 130H130V0H0V130ZM104.759 59.8C107.873 60.5226 110.703 62.151 112.892 64.48C114.097 65.7347 115.145 67.1317 116.012 68.64C116.012 68.8064 110.396 72.6024 106.974 74.724C106.85 74.8072 106.35 74.2664 105.799 73.4448C105.175 72.367 104.287 71.465 103.22 70.8231C102.152 70.1811 100.939 69.82 99.6944 69.7736C95.7528 69.5032 93.2152 71.5728 93.236 74.9736C93.2034 75.8203 93.3973 76.6604 93.7976 77.4072C94.6608 79.2064 96.2728 80.2776 101.327 82.4616C110.635 86.4656 114.618 89.1072 117.094 92.8616C119.86 97.0216 120.474 103.74 118.602 108.711C116.522 114.119 111.426 117.79 104.218 119.007C100.927 119.384 97.6007 119.349 94.3176 118.903C89.307 118.09 84.685 115.705 81.12 112.091C79.924 110.77 77.5944 107.328 77.74 107.078C78.1197 106.797 78.5194 106.543 78.936 106.319L83.72 103.574L87.4536 101.41L88.2336 102.565C89.55 104.448 91.2252 106.052 93.1632 107.286C97.3232 109.47 103.002 109.169 105.81 106.642C106.752 105.716 107.341 104.488 107.472 103.173C107.603 101.858 107.269 100.539 106.527 99.4448C105.487 97.9992 103.407 96.7824 97.5936 94.2448C90.8856 91.3536 87.9944 89.5648 85.3528 86.7152C83.7037 84.8348 82.4862 82.6162 81.7856 80.2152C81.263 77.4721 81.1858 74.6628 81.5568 71.8952C82.94 65.416 87.7968 60.892 94.8896 59.5504C98.1744 59.144 101.502 59.2351 104.759 59.8208V59.8ZM74.2456 65.2496V70.5744H57.3664V118.654H45.396V70.564H28.4752V65.364C28.4298 63.5739 28.4784 61.7826 28.6208 59.9976C28.6832 59.9144 39.0208 59.8728 51.5008 59.8936H74.1832L74.2456 65.2496Z" fill="#61DAFB"/>
</svg>
