<svg width="120" height="130" viewBox="0 0 120 130" fill="none" xmlns="http://www.w3.org/2000/svg">
<path d="M60 129.759C58.1366 129.759 56.3975 129.282 54.7826 128.447L38.2609 119.03C35.7764 117.719 37.0186 117.242 37.764 117.003C41.118 115.931 41.7391 115.692 45.2174 113.785C45.5901 113.546 46.087 113.666 46.4596 113.904L59.1304 121.176C59.6273 121.414 60.2484 121.414 60.6211 121.176L110.186 93.6385C110.683 93.4001 110.932 92.9233 110.932 92.3272V37.372C110.932 36.7759 110.683 36.2991 110.186 36.0607L60.6211 8.64264C60.1242 8.40422 59.5031 8.40422 59.1304 8.64264L9.56522 36.0607C9.06832 36.2991 8.81988 36.8951 8.81988 37.372V92.3272C8.81988 92.8041 9.06832 93.4001 9.56522 93.6385L23.1056 101.149C30.4348 104.725 35.0311 100.553 35.0311 96.3803V42.1403C35.0311 41.4251 35.6522 40.7098 36.5217 40.7098H42.8571C43.6025 40.7098 44.3478 41.3059 44.3478 42.1403V96.3803C44.3478 105.798 39.0062 111.281 29.6894 111.281C26.8323 111.281 24.5963 111.281 18.2609 108.301L5.21739 101.149C1.98758 99.3605 0 96.0227 0 92.4464V37.4912C0 33.9149 1.98758 30.5771 5.21739 28.7889L54.7826 1.25169C57.8882 -0.417231 62.1118 -0.417231 65.2174 1.25169L114.783 28.7889C118.012 30.5771 120 33.9149 120 37.4912V92.4464C120 96.0227 118.012 99.3605 114.783 101.149L65.2174 128.686C63.6025 129.401 61.7391 129.759 60 129.759ZM75.2795 91.9696C53.5404 91.9696 49.0683 82.4329 49.0683 74.3267C49.0683 73.6114 49.6894 72.8962 50.559 72.8962H57.0186C57.764 72.8962 58.3851 73.373 58.3851 74.0883C59.3789 80.4063 62.236 83.5058 75.4037 83.5058C85.8385 83.5058 90.3106 81.2408 90.3106 75.8764C90.3106 72.777 89.0683 70.512 72.795 68.9623C59.2547 67.651 50.8075 64.79 50.8075 54.4188C50.8075 44.7629 59.2547 39.0409 73.4162 39.0409C89.3168 39.0409 97.1429 44.2861 98.1367 55.7301C98.1367 56.0877 98.0124 56.4454 97.764 56.803C97.5155 57.0414 97.1429 57.2798 96.7702 57.2798H90.3106C89.6894 57.2798 89.0683 56.803 88.9441 56.207C87.4534 49.6505 83.6025 47.5047 73.4162 47.5047C61.9876 47.5047 60.6211 51.3194 60.6211 54.1804C60.6211 57.6375 62.236 58.7103 77.6398 60.6177C92.9193 62.525 100.124 65.2668 100.124 75.5188C100 86.0092 91.0559 91.9696 75.2795 91.9696Z" fill="#61DAFB"/>
</svg>
