<svg width="135" height="119" viewBox="0 0 135 119" fill="none" xmlns="http://www.w3.org/2000/svg">
<path d="M67.8385 69.7222C74.3767 69.7222 79.6769 65.0834 79.6769 59.3611C79.6769 53.6388 74.3767 49 67.8385 49C61.3003 49 56 53.6388 56 59.3611C56 65.0834 61.3003 69.7222 67.8385 69.7222Z" fill="#61DAFB"/>
<path d="M114.189 39.2082C111.817 38.3627 109.337 37.5173 106.749 36.7775C107.396 34.2411 107.935 31.7047 108.367 29.274C110.631 15.3239 108.151 5.49549 101.25 1.69092C99.2013 0.528411 96.9369 0 94.3491 0C86.8011 0 77.2045 5.49549 67.5 14.6899C57.7955 5.49549 48.1989 0 40.651 0C38.0631 0 35.7987 0.528411 33.75 1.69092C26.849 5.60117 24.369 15.4296 26.6334 29.274C27.0647 31.7047 27.6038 34.2411 28.2508 36.7775C25.6629 37.5173 23.1829 38.257 20.8107 39.2082C7.33227 44.2809 0 51.256 0 59.0765C0 66.897 7.4401 73.872 20.8107 78.9448C23.1829 79.7902 25.6629 80.6357 28.2508 81.3755C27.6038 83.9118 27.0647 86.4482 26.6334 88.8789C24.369 102.829 26.849 112.657 33.75 116.462C35.7987 117.625 38.0631 118.153 40.651 118.153C48.3067 118.153 57.9034 112.657 67.5 103.463C77.2045 112.657 86.8011 118.153 94.3491 118.153C96.9369 118.153 99.2013 117.625 101.25 116.462C108.151 112.552 110.631 102.723 108.367 88.8789C107.935 86.4482 107.396 83.9118 106.749 81.3755C109.337 80.6357 111.817 79.8959 114.189 78.9448C127.668 73.872 135 66.897 135 59.0765C135 51.256 127.668 44.2809 114.189 39.2082ZM98.2308 6.97504C102.652 9.51142 104.161 17.3319 102.328 28.4286C102.005 30.6479 101.466 32.9729 100.819 35.4036C95.2117 34.1354 89.2812 33.29 83.0272 32.7615C79.361 27.6888 75.5871 23.1444 71.8131 19.0228C79.7923 11.308 87.8794 6.0239 94.4569 6.0239C95.8586 6.0239 97.1526 6.34094 98.2308 6.97504ZM86.1542 69.6447C84.2133 73.0266 81.9489 76.4084 79.5767 79.7902C75.5871 80.1073 71.5974 80.213 67.5 80.213C63.2947 80.213 59.3051 80.1073 55.4233 79.7902C53.0511 76.4084 50.8946 73.0266 48.9537 69.6447C46.905 66.1572 44.9641 62.564 43.2388 59.0765C44.9641 55.589 46.905 51.9958 48.9537 48.5082C50.8946 45.1264 53.159 41.7446 55.5312 38.3627C59.5208 38.0457 63.5104 37.94 67.6078 37.94C71.8131 37.94 75.8027 38.0457 79.6845 38.3627C82.0567 41.7446 84.2133 45.1264 86.1542 48.5082C88.2029 51.9958 90.1438 55.589 91.869 59.0765C90.0359 62.564 88.2029 66.0515 86.1542 69.6447ZM95.1038 66.1572C96.7212 69.8561 98.0152 73.4493 99.2013 77.0425C95.5351 77.8879 91.6534 78.522 87.5559 79.0505C88.8498 77.0425 90.2516 74.9288 91.4377 72.7095C92.7316 70.4902 93.9177 68.2708 95.1038 66.1572ZM67.5 94.7971C64.9121 92.0494 62.4321 89.0903 60.0599 86.0255C62.5399 86.1312 65.02 86.2369 67.5 86.2369C69.98 86.2369 72.4601 86.1312 74.9401 86.0255C72.5679 89.0903 70.0879 92.0494 67.5 94.7971ZM47.4441 78.9448C43.3466 78.4164 39.4649 77.7823 35.7987 76.9368C36.9848 73.4493 38.2788 69.7504 39.8962 66.0515C41.0823 68.1652 42.2684 70.3845 43.5623 72.4981C44.8562 74.8232 46.1502 76.8311 47.4441 78.9448ZM39.8962 51.9957C38.2788 48.2969 36.9848 44.7037 35.7987 41.1105C39.4649 40.265 43.3466 39.6309 47.4441 39.1025C46.1502 41.1105 44.7484 43.2241 43.5623 45.4434C42.2684 47.6628 41.0823 49.8821 39.8962 51.9957ZM67.5 23.3558C70.0879 26.1036 72.5679 29.0627 74.9401 32.1275C72.4601 32.0218 69.98 31.9161 67.5 31.9161C65.02 31.9161 62.5399 32.0218 60.0599 32.1275C62.4321 29.0627 64.9121 26.1036 67.5 23.3558ZM91.4377 45.5491L87.5559 39.2082C91.6534 39.7366 95.5351 40.3707 99.2013 41.2161C98.0152 44.7037 96.7212 48.4026 95.1038 52.1014C93.9177 49.8821 92.7316 47.6628 91.4377 45.5491ZM32.6717 28.4286C30.8387 17.3319 32.3482 9.51142 36.7692 6.97504C37.8474 6.34094 39.1414 6.0239 40.5431 6.0239C47.0128 6.0239 55.0998 11.2023 63.1869 19.0228C59.4129 23.0388 55.639 27.6888 51.9728 32.7615C45.7188 33.29 39.7883 34.2411 34.1813 35.4036C33.5343 32.9729 33.103 30.6479 32.6717 28.4286ZM6.03834 59.0765C6.03834 54.1094 12.1845 48.8253 22.9673 44.915C25.1238 44.0696 27.496 43.3298 29.8682 42.6957C31.5935 47.9798 33.75 53.581 36.3379 59.1822C33.75 64.7833 31.4856 70.2788 29.8682 75.5629C14.988 71.3356 6.03834 64.9947 6.03834 59.0765ZM36.7692 111.178C32.3482 108.642 30.8387 100.821 32.6717 89.7244C32.9952 87.5051 33.5343 85.18 34.1813 82.7493C39.7883 84.0175 45.7188 84.863 51.9728 85.3914C55.639 90.4641 59.4129 95.0085 63.1869 99.1301C55.2077 106.845 47.1206 112.129 40.5431 112.129C39.1414 112.129 37.8474 111.812 36.7692 111.178ZM102.328 89.7244C104.161 100.821 102.652 108.642 98.2308 111.178C97.1526 111.812 95.8586 112.129 94.4569 112.129C87.9872 112.129 79.9002 106.951 71.8131 99.1301C75.5871 95.1142 79.361 90.4641 83.0272 85.3914C89.2812 84.863 95.2117 83.9118 100.819 82.7493C101.466 85.18 101.897 87.5051 102.328 89.7244ZM112.033 73.2379C109.876 74.0834 107.504 74.8232 105.132 75.4573C103.407 70.1731 101.25 64.572 98.6621 58.9708C101.25 53.3696 103.514 47.8741 105.132 42.59C120.012 46.8173 128.962 53.1583 128.962 59.0765C128.962 64.0435 122.708 69.3277 112.033 73.2379Z" fill="#61DAFB"/>
</svg>
