<svg width="160" height="130" viewBox="0 0 160 130" fill="none" xmlns="http://www.w3.org/2000/svg">
<path fill-rule="evenodd" clip-rule="evenodd" d="M0 54.2084C0 55.1817 0.263791 55.824 0.411616 56.4484C1.37503 60.5089 3.44585 63.9935 5.9028 67.1722C9.40217 71.702 13.6878 75.3486 18.078 78.7778C21.8857 81.7515 25.7712 84.6588 29.5943 87.6104C30.2506 88.1171 30.8712 88.6999 31.5835 89.3215C30.9706 89.6815 30.4608 89.9985 29.9307 90.2906C24.8855 93.0705 20.0315 96.1869 15.5573 99.9622C12.8608 102.238 10.2534 104.657 8.412 107.817C5.44913 112.901 4.40034 118.317 6.60879 124.1C7.25361 125.789 8.23741 127.248 9.62518 128.326C10.075 128.675 10.5797 129.021 11.106 129.157C12.4542 129.502 13.828 129.727 15.1928 130L19.0579 129.997C23.3321 129.583 27.2227 127.993 30.7386 125.357C36.2337 121.237 39.9356 115.713 41.5273 108.623C42.6844 103.47 42.7316 98.312 41.368 93.1827C41.2419 92.7064 41.0826 92.2399 40.9169 91.7789C40.7512 91.3179 40.5563 90.8693 40.3269 90.2948L49.0893 84.8208L49.2206 84.9426C49.0613 85.5088 48.8918 86.0737 48.7478 86.6454C47.7066 90.7766 47.0147 94.9797 47.2632 99.2672C47.5282 103.836 48.7019 108.112 51.164 111.929C53.1545 115.016 57.8976 115.131 60.0131 112.033C60.7637 110.932 61.4913 109.782 62.038 108.554C63.4666 105.349 64.7893 102.087 66.1542 98.8477L66.3925 98.2552C66.2943 99.7891 66.1796 101.136 66.1274 102.485C66.0458 104.59 66.1593 106.684 66.8219 108.687C67.389 110.401 68.3537 111.681 70.1607 111.907C71.3969 112.061 72.3819 111.446 73.2905 110.667C74.7102 109.45 75.8635 107.946 76.7198 106.238C79.1424 101.405 81.6299 96.6008 83.8256 91.646C86.201 86.2869 88.2782 80.7713 90.4841 75.3209L90.8486 74.3545C91.3698 76.5793 91.7329 78.7584 92.402 80.8212C93.1793 83.2148 94.1415 85.5517 95.189 87.8236C95.6847 88.8965 95.6274 89.5929 94.9405 90.4927C92.0656 94.2584 89.2403 98.0697 86.4125 101.877C85.7868 102.717 85.1637 103.573 84.6425 104.491C84.3277 105.049 84.1187 105.728 84.0308 106.379C83.8613 107.622 84.5686 108.821 85.7932 109.108C86.9121 109.369 88.1036 109.466 89.2441 109.375C93.1908 109.059 96.7743 107.554 99.9423 105.004C104.047 101.701 105.365 97.1934 104.371 91.8509C104.102 90.4014 103.626 88.992 103.164 87.5952C102.956 86.9652 102.942 86.5236 103.321 85.9366C106.602 80.8461 109.406 75.4455 112.013 69.9202C112.116 69.7029 112.222 69.4855 112.403 69.2529C113.248 74.0292 114.52 78.6324 116.798 82.8092C115.636 84.0261 114.485 85.1295 113.444 86.345C111.152 89.0225 109.164 91.9298 108.126 95.4753C107.68 97.0037 107.337 98.557 107.536 100.189C107.845 102.724 109.756 104.372 112.051 103.794C116.963 102.559 121.202 100.045 124.3 95.5916C126.385 92.5929 126.575 89.2482 125.702 85.7442C125.463 84.7917 125.178 83.8544 124.872 82.7621C126.084 82.3537 127.266 81.8637 128.488 81.5605C134.833 79.9878 141.109 80.2619 147.223 82.7511C150.793 84.2047 153.677 86.6371 155.387 90.4637C157.476 95.1416 156.321 99.5801 152.262 102.537C151.884 102.813 151.45 103.03 151.137 103.375C150.944 103.587 150.828 104.01 150.876 104.302C150.902 104.473 151.317 104.686 151.555 104.683C152.889 104.672 153.971 103.912 155.01 103.131C157.612 101.175 159.511 98.5432 159.92 95.078L160 94.8177L159.902 92.5611C159.862 92.4309 159.931 92.3022 159.922 92.2039C159.369 87.1577 156.888 83.2439 153.279 80.176C149.099 76.625 144.164 75.163 138.944 74.9318C134.69 74.7436 130.509 75.4302 126.5 77.0126C125.357 77.4626 124.224 77.9956 123.074 78.4981C122.92 78.1949 122.755 77.9042 122.618 77.6038C121.438 74.9789 120.008 72.4703 119.692 69.4606C119.468 67.3231 119.193 65.1883 119.66 63.0743C120.11 61.0406 120.696 59.0415 121.248 57.0354C121.532 56.0026 121.332 55.424 120.425 54.9588C120.109 54.7968 119.765 54.6556 119.423 54.6016C117.193 54.25 114.994 54.4507 112.834 55.1332C112.069 55.3755 111.513 55.8407 111.344 56.7599C111.247 57.2874 111.05 57.7927 110.912 58.3132C110.347 60.4771 109.947 62.6825 109.035 64.7439C106.749 69.9147 104.139 74.8903 101.468 79.8299C101.178 80.3629 100.874 80.8862 100.509 81.5328C99.5715 79.4008 98.5711 77.4875 98.2678 75.2447C97.925 72.7085 97.6549 70.1764 98.236 67.6595C98.668 65.7822 99.2325 63.9395 99.7525 62.0872C99.9984 61.2067 99.885 60.7443 99.151 60.2805C98.7801 60.0465 98.3609 59.8389 97.9429 59.771C95.6299 59.3986 93.3514 59.5938 91.12 60.3774C90.428 60.6211 90.0648 61.107 89.8533 61.8823C89.2314 64.1693 88.7013 66.5118 87.8283 68.6867C84.2933 77.4916 80.6563 86.2509 77.0231 95.0087C76.2649 96.8375 75.3766 98.6027 74.5216 100.383C74.3049 100.834 73.9889 101.232 73.7187 101.655C73.5021 101.377 73.418 101.186 73.4192 100.995C73.4256 99.8694 73.302 98.7107 73.4995 97.6225C74.0972 94.3304 74.7853 91.0562 75.5105 87.7945C76.1094 85.1004 76.8065 82.4313 77.4704 79.7552C77.6934 78.8595 77.6972 78.0219 77.1047 77.2688C76.1094 76.0075 74.0297 75.7307 72.7961 76.7025L72.2507 77.0376L72.3564 76.0823C72.6164 74.0347 72.6687 71.9941 72.1513 69.977C71.5064 67.4629 69.8549 66.0162 67.454 66.0965C66.3351 66.1338 65.1602 66.3415 64.1241 66.7845C59.7671 68.6396 56.4168 71.9249 53.5648 75.8774C53.3061 76.236 52.9646 76.5627 52.6002 76.7828C48.9135 79.0034 45.2153 81.1964 41.5184 83.3976L37.4035 85.8466C36.2999 84.7031 35.297 83.5166 34.159 82.5102C30.6838 79.4312 27.1526 76.4284 23.6532 73.3841C20.5515 70.6858 17.5466 67.8754 15.2476 64.3022C13.5374 61.6442 12.4351 58.7355 12.3294 55.4489C12.1955 51.261 13.2889 47.4345 15.2514 43.8723C17.7619 39.3148 21.1861 35.6572 24.9505 32.3442C28.9329 28.8417 33.2402 25.8679 37.7043 23.1531C43.9499 19.3556 50.3739 15.9942 57.2617 13.775C64.3242 11.499 71.4899 10.1963 78.8811 11.1044C81.7866 11.4616 84.608 12.1843 87.1988 13.7279C89.183 14.9088 90.8103 16.4552 91.5673 18.8724C92.3141 21.2509 92.2911 23.6612 91.7737 26.077C90.7224 30.9695 88.2565 35.0023 85.1535 38.606C80.0637 44.5133 73.8551 48.5351 66.8652 51.1918C62.8319 52.7243 58.6826 53.6865 54.4212 54.0755C50.9435 54.3926 47.5384 54.0575 44.2455 52.7437C42.0651 51.8729 40.1663 50.5411 38.6396 48.6084C38.3669 48.2623 38.0177 47.8872 37.5093 48.2111C37.011 48.5295 36.9231 49.0445 37.09 49.5665C37.3691 50.4331 37.6265 51.3358 38.0611 52.111C39.1532 54.0561 40.7461 55.4669 42.4996 56.6769C45.8678 59.0041 49.6322 59.7863 53.5355 59.9676C59.4587 60.2459 65.2379 59.2851 70.9355 57.5587C79.0697 55.0945 86.1424 50.7418 91.8145 43.8751C96.5373 38.1574 99.9105 31.7046 100.633 23.9131C100.986 20.1101 100.61 16.3846 98.9713 12.9153C97.1936 9.15657 94.367 6.36142 90.9875 4.43569C86.0659 1.63223 80.7544 0 75.2721 0H69.7797C63.1403 0 56.7214 2.06694 50.4822 4.5326C45.7594 6.40018 41.1284 8.60418 36.6325 11.0435C26.8417 16.3583 17.7237 22.7668 10.2343 31.5787C6.50302 35.9687 3.3439 40.8128 1.52667 46.5166C0.995269 48.1862 0.490626 49.9763 0.110869 51.7026M35.5876 101.56C35.1632 107.733 32.5877 112.738 28.3785 116.791C26.0108 119.07 23.2952 120.693 20.1322 121.263C18.9853 121.469 17.8116 121.519 16.6991 121.003C15.1125 120.266 14.757 118.736 14.7264 117.107C14.6793 114.51 15.5165 112.162 16.6647 109.927C18.1633 107.014 20.3603 104.794 22.7064 102.72C26.402 99.4513 30.4111 96.6853 34.5171 94.0742L34.8268 93.9358C35.4614 96.4831 35.7634 98.9986 35.5876 101.56ZM67.6477 74.7311C67.3482 76.7025 66.9736 78.6753 66.4434 80.5858C64.6109 87.1992 62.2572 93.6077 59.7123 99.9304C59.2421 101.1 58.5578 102.168 57.9626 103.276C57.8709 103.448 57.7345 103.596 57.602 103.739C56.8654 104.529 56.1671 104.488 55.795 103.454C55.3617 102.252 55.0953 100.966 54.866 99.6936C54.7118 98.8394 54.7487 97.9423 54.7003 97.0674C54.75 90.8458 56.4971 85.1918 59.4613 79.9282C60.6834 77.7574 62.0138 75.6891 64.0464 74.3158C64.6708 73.8935 65.3717 73.5543 66.079 73.3384C67.1622 73.0075 67.8274 73.5516 67.6477 74.7311ZM89.5207 105.006L97.3822 95.0336C97.7097 98.737 91.9152 106.13 89.5207 105.006ZM114.629 98.2953C114.074 98.6415 113.468 98.8907 112.899 99.2105C112.377 99.504 112.205 99.2077 112.19 98.7204C112.18 98.3895 112.225 98.0434 112.309 97.7222C113.37 93.6548 115.324 90.1826 118.231 87.3584L118.434 87.2449C119.817 91.4466 118.219 96.0609 114.629 98.2953Z" fill="#61DAFB"/>
</svg>
