<svg width="146" height="147" viewBox="0 0 146 147" fill="none" xmlns="http://www.w3.org/2000/svg">
<path d="M79.8773 0.365338C77.8382 0.809844 75.3024 1.98648 73.6555 3.24155C71.721 4.70581 15.5421 60.8443 13.7644 63.0668C11.1241 66.3875 10 69.4729 10 73.4473C10 77.2126 11.1241 80.664 13.32 83.6187C13.7906 84.2724 27.5935 98.1828 43.9583 114.525C72.7405 143.235 73.7601 144.255 75.6684 145.17C78.3349 146.477 80.557 147 83.3803 147C91.066 146.948 97.6538 141.823 99.5883 134.371C100.137 132.227 100.137 128.409 99.5883 126.239C99.353 125.324 98.6733 123.624 98.0982 122.474C97.0525 120.434 96.3205 119.676 73.8124 97.1107C61.029 84.2985 50.5199 73.7611 50.4415 73.6565C50.3369 73.5781 60.7153 63.0407 73.4987 50.2546C97.9675 25.8068 97.706 26.0682 99.1439 22.2507C100.033 19.8975 100.242 15.2955 99.5883 12.7854C98.3857 8.05268 95.0919 3.97368 90.8046 1.85574C87.1709 0.0515696 83.5894 -0.419084 79.8773 0.365338Z" fill="white"/>
<path d="M145.637 126.877C145.196 124.838 144.027 122.302 142.781 120.655C141.326 118.721 85.5696 62.542 83.3622 60.7644C80.0641 58.1241 76.9997 57 73.0523 57C69.3127 57 65.8847 58.1241 62.9502 60.32C62.3009 60.7905 48.4851 74.5935 32.2542 90.9583C3.73961 119.741 2.7268 120.76 1.81787 122.668C0.519391 125.335 0 127.557 0 130.38C0.0519391 138.066 5.14197 144.654 12.5433 146.588C14.6728 147.137 18.4643 147.137 20.6198 146.588C21.5287 146.353 23.2168 145.673 24.3594 145.098C26.385 144.052 27.1382 143.32 49.5499 120.812C62.2749 108.029 72.7407 97.5199 72.8445 97.4415C72.9225 97.3369 83.3882 107.715 96.0873 120.499C120.369 144.967 120.109 144.706 123.901 146.144C126.238 147.033 130.809 147.242 133.302 146.588C138.002 145.386 142.053 142.092 144.157 137.805C145.949 134.171 146.416 130.589 145.637 126.877Z" fill="#808080"/>
</svg>
