<svg width="75" height="75" viewBox="0 0 75 75" fill="none" xmlns="http://www.w3.org/2000/svg">
<path d="M63.9688 6.24995H11.0313C10.4362 6.24168 9.84532 6.35072 9.29239 6.57084C8.73947 6.79095 8.23532 7.11783 7.80874 7.5328C7.38216 7.94777 7.0415 8.44271 6.80622 8.98935C6.57095 9.53599 6.44565 10.1236 6.4375 10.7187V64.2812C6.44565 64.8762 6.57095 65.4639 6.80622 66.0105C7.0415 66.5571 7.38216 67.0521 7.80874 67.4671C8.23532 67.882 8.73947 68.2089 9.29239 68.429C9.84532 68.6491 10.4362 68.7582 11.0313 68.7499H63.9688C64.5638 68.7582 65.1547 68.6491 65.7076 68.429C66.2606 68.2089 66.7647 67.882 67.1913 67.4671C67.6179 67.0521 67.9585 66.5571 68.1938 66.0105C68.4291 65.4639 68.5544 64.8762 68.5625 64.2812V10.7187C68.5544 10.1236 68.4291 9.53599 68.1938 8.98935C67.9585 8.44271 67.6179 7.94777 67.1913 7.5328C66.7647 7.11783 66.2606 6.79095 65.7076 6.57084C65.1547 6.35072 64.5638 6.24168 63.9688 6.24995ZM25.2813 58.5624H15.9063V30.4374H25.2813V58.5624ZM20.5938 26.4999C19.3008 26.4999 18.0609 25.9863 17.1466 25.0721C16.2324 24.1578 15.7188 22.9179 15.7188 21.6249C15.7188 20.332 16.2324 19.092 17.1466 18.1778C18.0609 17.2636 19.3008 16.7499 20.5938 16.7499C21.2803 16.6721 21.9756 16.7401 22.634 16.9496C23.2924 17.159 23.8992 17.5052 24.4146 17.9654C24.9299 18.4257 25.3423 18.9896 25.6246 19.6202C25.9069 20.2508 26.0529 20.934 26.0529 21.6249C26.0529 22.3159 25.9069 22.999 25.6246 23.6297C25.3423 24.2603 24.9299 24.8242 24.4146 25.2844C23.8992 25.7447 23.2924 26.0908 22.634 26.3003C21.9756 26.5098 21.2803 26.5778 20.5938 26.4999ZM59.0938 58.5624H49.7188V43.4687C49.7188 39.6874 48.375 37.2187 44.9688 37.2187C43.9146 37.2264 42.8881 37.5571 42.0276 38.1661C41.1672 38.7751 40.514 39.6333 40.1563 40.6249C39.9117 41.3594 39.8058 42.133 39.8438 42.9062V58.5312H30.4688C30.4688 58.5312 30.4688 32.9687 30.4688 30.4062H39.8438V34.3749C40.6954 32.8971 41.9341 31.6797 43.4264 30.8537C44.9187 30.0277 46.608 29.6245 48.3125 29.6874C54.5625 29.6874 59.0938 33.7187 59.0938 42.3749V58.5624Z" fill="white"/>
</svg>
