<svg width="75" height="75" viewBox="0 0 75 75" fill="none" xmlns="http://www.w3.org/2000/svg">
<g clip-path="url(#clip0_30_2)">
<path d="M75 75H0V0H75V75ZM46.9188 28.1063V51C46.9188 51.6187 46.9188 51.7312 46.5219 52.1312L42.4531 56.0812V56.925H62.2031V56.0812L58.275 52.225C57.9906 52.0062 57.8125 51.6688 57.8125 51.2875C57.8125 51.2188 57.8187 51.1531 57.8281 51.0875V51.0938V22.75C57.8187 22.6906 57.8125 22.625 57.8125 22.5562C57.8125 22.1781 57.9938 21.8406 58.275 21.625L58.2781 21.6219L62.2969 17.7656V16.9219H48.3719L38.4469 41.6844L27.1688 16.9219H12.5594V17.7687L17.2531 23.4344C17.65 23.7938 17.9 24.3125 17.9 24.8906C17.9 24.9594 17.8969 25.025 17.8906 25.0906V25.0812V47.35C17.9125 47.4781 17.925 47.625 17.925 47.775C17.925 48.4688 17.65 49.0969 17.2031 49.5594L11.9219 55.9781V56.8219H26.9219V55.9781L21.6375 49.5594C21.1719 49.0781 20.8844 48.425 20.8844 47.7C20.8844 47.575 20.8937 47.4531 20.9094 47.3344V47.3469V28.0969L34.0812 56.8313H35.6125L46.9188 28.1063Z" fill="white"/>
</g>
<defs>
<clipPath id="clip0_30_2">
<rect width="75" height="75" fill="white"/>
</clipPath>
</defs>
</svg>
