<svg width="75" height="75" viewBox="0 0 75 75" fill="none" xmlns="http://www.w3.org/2000/svg">
<path d="M68.75 18.1249C66.401 19.144 63.9169 19.8176 61.375 20.1249C64.0568 18.5228 66.0665 16.0024 67.0312 13.0312C64.5111 14.5314 61.7524 15.5883 58.875 16.1562C56.9517 14.0705 54.3905 12.6821 51.5931 12.2088C48.7958 11.7356 45.9204 12.2042 43.4181 13.5411C40.9157 14.8781 38.9279 17.0078 37.7664 19.5963C36.6048 22.1847 36.3353 25.0855 37 27.8437C31.9045 27.5859 26.9201 26.2591 22.3708 23.9495C17.8215 21.6398 13.8089 18.399 10.5937 14.4374C9.46605 16.4067 8.8735 18.6369 8.875 20.9062C8.871 23.0136 9.38818 25.0893 10.3805 26.9486C11.3728 28.8078 12.8094 30.3928 14.5625 31.5624C12.5249 31.507 10.5309 30.9602 8.75 29.9687V30.1249C8.76527 33.0777 9.79998 35.9346 11.6791 38.2123C13.5582 40.49 16.1664 42.0488 19.0625 42.6249C17.9477 42.9642 16.7902 43.1431 15.625 43.1562C14.8184 43.1467 14.0138 43.0736 13.2187 42.9374C14.0435 45.4774 15.6394 47.6972 17.7846 49.2879C19.9298 50.8786 22.5174 51.761 25.1875 51.8124C20.6788 55.3601 15.1121 57.2963 9.375 57.3124C8.33042 57.3158 7.28667 57.2532 6.25 57.1249C12.1076 60.907 18.9338 62.9147 25.9062 62.9062C30.7178 62.9561 35.491 62.0468 39.9472 60.2314C44.4034 58.416 48.4532 55.7308 51.86 52.3327C55.2668 48.9346 57.9624 44.8918 59.7892 40.4402C61.6161 35.9887 62.5376 31.2178 62.5 26.4062C62.5 25.8749 62.5 25.3124 62.5 24.7499C64.9522 22.9212 67.0671 20.6794 68.75 18.1249Z" fill="white"/>
</svg>
