<svg width="75" height="75" viewBox="0 0 75 75" fill="none" xmlns="http://www.w3.org/2000/svg">
<g clip-path="url(#clip0_27_8)">
<path d="M37.4953 0C16.7906 0 2.16397e-05 16.8562 2.16397e-05 37.65C-0.00843751 45.5416 2.46337 53.2363 7.0661 59.6467C11.6688 66.057 18.1697 70.8588 25.65 73.3734C27.525 73.7203 28.2094 72.5578 28.2094 71.5593C28.2094 70.664 28.1766 68.2968 28.1578 65.1562C17.7281 67.4297 15.525 60.1078 15.525 60.1078C13.8235 55.7578 11.3625 54.6 11.3625 54.6C7.95471 52.2656 11.6156 52.3125 11.6156 52.3125C15.3797 52.5797 17.3578 56.1937 17.3578 56.1937C20.7047 61.9453 26.1375 60.2859 28.275 59.3203C28.6125 56.8875 29.5828 55.2281 30.6563 54.2859C22.3313 53.3344 13.575 50.1047 13.575 35.6812C13.575 31.5703 15.0375 28.2094 17.4375 25.575C17.0485 24.6234 15.7641 20.7937 17.8031 15.6141C17.8031 15.6141 20.9531 14.6016 28.1156 19.4719C31.1754 18.6357 34.3327 18.2101 37.5047 18.2062C40.6768 18.2125 43.834 18.6397 46.8938 19.4766C54.0516 14.6062 57.1969 15.6187 57.1969 15.6187C59.2406 20.8031 57.9563 24.6281 57.5719 25.5797C59.9766 28.2141 61.425 31.575 61.425 35.6859C61.425 50.1469 52.6594 53.3297 44.3063 54.2625C45.6516 55.425 46.8516 57.7219 46.8516 61.2328C46.8516 66.2672 46.8047 70.3265 46.8047 71.5593C46.8047 72.5672 47.4797 73.739 49.3828 73.3687C56.8558 70.8482 63.3487 66.0446 67.945 59.6358C72.5413 53.227 75.0091 45.5366 75 37.65C75 16.8562 58.2094 0 37.4953 0Z" fill="white"/>
</g>
<defs>
<clipPath id="clip0_27_8">
<rect width="75" height="75" fill="white"/>
</clipPath>
</defs>
</svg>
