<svg width="75" height="75" viewBox="0 0 75 75" fill="none" xmlns="http://www.w3.org/2000/svg">
<path d="M54.1875 17.0625C53.4458 17.0625 52.7208 17.2824 52.1041 17.6945C51.4874 18.1065 51.0068 18.6922 50.7229 19.3774C50.4391 20.0627 50.3648 20.8167 50.5095 21.5441C50.6542 22.2715 51.0114 22.9397 51.5358 23.4641C52.0603 23.9886 52.7285 24.3457 53.4559 24.4904C54.1833 24.6351 54.9373 24.5609 55.6226 24.277C56.3078 23.9932 56.8934 23.5126 57.3055 22.8959C57.7176 22.2792 57.9375 21.5542 57.9375 20.8125C57.9375 19.8179 57.5424 18.8641 56.8391 18.1608C56.1359 17.4576 55.1821 17.0625 54.1875 17.0625ZM68.5625 24.625C68.5017 22.0322 68.0161 19.4669 67.125 17.0312C66.3304 14.9473 65.0937 13.0602 63.5 11.5C61.9526 9.89821 60.0611 8.6693 57.9687 7.90625C55.5395 6.988 52.9714 6.49128 50.375 6.4375C47.0625 6.25 46 6.25 37.5 6.25C29 6.25 27.9375 6.25 24.625 6.4375C22.0286 6.49128 19.4604 6.988 17.0312 7.90625C14.9427 8.67703 13.0529 9.90488 11.5 11.5C9.89821 13.0474 8.6693 14.9389 7.90625 17.0312C6.988 19.4604 6.49128 22.0286 6.4375 24.625C6.25 27.9375 6.25 29 6.25 37.5C6.25 46 6.25 47.0625 6.4375 50.375C6.49128 52.9714 6.988 55.5395 7.90625 57.9687C8.6693 60.0611 9.89821 61.9526 11.5 63.5C13.0529 65.0951 14.9427 66.323 17.0312 67.0937C19.4604 68.012 22.0286 68.5087 24.625 68.5625C27.9375 68.75 29 68.75 37.5 68.75C46 68.75 47.0625 68.75 50.375 68.5625C52.9714 68.5087 55.5395 68.012 57.9687 67.0937C60.0611 66.3307 61.9526 65.1018 63.5 63.5C65.1007 61.9455 66.3385 60.0568 67.125 57.9687C68.0161 55.5331 68.5017 52.9678 68.5625 50.375C68.5625 47.0625 68.75 46 68.75 37.5C68.75 29 68.75 27.9375 68.5625 24.625ZM62.9375 50C62.9147 51.9837 62.5555 53.9491 61.875 55.8125C61.376 57.1725 60.5746 58.4013 59.5312 59.4062C58.5176 60.4391 57.2913 61.2388 55.9375 61.75C54.0741 62.4305 52.1087 62.7897 50.125 62.8125C47 62.9687 45.8437 63 37.625 63C29.4062 63 28.25 63 25.125 62.8125C23.0653 62.8511 21.0144 62.5339 19.0625 61.875C17.7681 61.3377 16.598 60.5399 15.625 59.5312C14.5878 58.5273 13.7964 57.2975 13.3125 55.9375C12.5496 54.0473 12.1264 52.0373 12.0625 50C12.0625 46.875 11.875 45.7187 11.875 37.5C11.875 29.2812 11.875 28.125 12.0625 25C12.0765 22.972 12.4467 20.9623 13.1562 19.0625C13.7064 17.7435 14.5508 16.5677 15.625 15.625C16.5744 14.5505 17.7478 13.6972 19.0625 13.125C20.9673 12.4376 22.975 12.0784 25 12.0625C28.125 12.0625 29.2812 11.875 37.5 11.875C45.7187 11.875 46.875 11.875 50 12.0625C51.9837 12.0853 53.9491 12.4445 55.8125 13.125C57.2326 13.652 58.5072 14.5089 59.5312 15.625C60.5553 16.5849 61.3555 17.7585 61.875 19.0625C62.5695 20.9654 62.929 22.9743 62.9375 25C63.0937 28.125 63.125 29.2812 63.125 37.5C63.125 45.7187 63.0937 46.875 62.9375 50ZM37.5 21.4687C34.3307 21.4749 31.2343 22.4204 28.602 24.1857C25.9698 25.951 23.9199 28.4569 22.7114 31.3867C21.5028 34.3166 21.1898 37.5389 21.8119 40.6466C22.4339 43.7543 23.9632 46.6079 26.2065 48.8468C28.4497 51.0857 31.3063 52.6094 34.4152 53.2255C37.5241 53.8415 40.7458 53.5222 43.6733 52.3079C46.6008 51.0936 49.1027 49.0389 50.8629 46.4032C52.6231 43.7676 53.5625 40.6693 53.5625 37.5C53.5666 35.3909 53.1538 33.3019 52.3476 31.353C51.5415 29.4041 50.358 27.6338 48.8652 26.1439C47.3724 24.654 45.5998 23.474 43.6494 22.6716C41.6989 21.8693 39.609 21.4605 37.5 21.4687ZM37.5 47.9062C35.4418 47.9062 33.4299 47.2959 31.7186 46.1525C30.0073 45.009 28.6735 43.3838 27.8859 41.4823C27.0982 39.5808 26.8922 37.4884 27.2937 35.4698C27.6952 33.4512 28.6863 31.597 30.1417 30.1417C31.597 28.6863 33.4512 27.6952 35.4698 27.2937C37.4884 26.8922 39.5808 27.0982 41.4823 27.8859C43.3838 28.6735 45.009 30.0073 46.1525 31.7186C47.2959 33.4299 47.9062 35.4418 47.9062 37.5C47.9062 38.8666 47.6371 40.2197 47.1141 41.4823C46.5911 42.7448 45.8246 43.892 44.8583 44.8583C43.892 45.8246 42.7448 46.5911 41.4823 47.1141C40.2197 47.6371 38.8666 47.9062 37.5 47.9062Z" fill="white"/>
</svg>
