<svg width="75" height="75" viewBox="0 0 75 75" fill="none" xmlns="http://www.w3.org/2000/svg">
<path fill-rule="evenodd" clip-rule="evenodd" d="M71.8125 19.0312C69.7781 15.4125 67.5703 14.7469 63.075 14.4938C58.5844 14.1891 47.2922 14.0625 37.5094 14.0625C27.7078 14.0625 16.4109 14.1891 11.925 14.4891C7.43906 14.7469 5.22656 15.4078 3.17344 19.0312C1.07812 22.6453 0 28.8703 0 39.8297V39.8672C0 50.7797 1.07812 57.0516 3.17344 60.6281C5.22656 64.2469 7.43437 64.9031 11.9203 65.2078C16.4109 65.4703 27.7078 65.625 37.5094 65.625C47.2922 65.625 58.5844 65.4703 63.0797 65.2125C67.575 64.9078 69.7828 64.2516 71.8172 60.6328C73.9313 57.0563 75 50.7844 75 39.8719V39.8344C75 28.8703 73.9313 22.6453 71.8125 19.0312ZM28.125 53.9062V25.7812L51.5625 39.8438L28.125 53.9062Z" fill="white"/>
</svg>
